# xmcd CD database file
#
# Track frame offsets:
#	150
#	11832
#	21273
#	32137
#	42759
#	54213
#	68621
#	82280
#	95822
#	108441
#
# Disc length: 1589 seconds
#
# Revision: 0
# Processed by: cddbd v1.5.1PL0 Copyright (c) Steve Scherf et al.
# Submitted via: CDex 1.51
#
DISCID=7f06330a
DTITLE=George Jones - Country Legend
DYEAR=1900
DGENRE=Country
TTITLE0=White Lignting
TTITLE1=Love Bug
TTITLE2=Treasure of Love
TTITLE3=Don't Stop the Music
TTITLE4=Who Shot Sam
TTITLE5=OpenPit Mine
TTITLE6=I Threw Away the Rose
TTITLE7=The Window Up Above
TTITLE8=Sometimes You Just Can't Win
TTITLE9=As Long As I Live (With Gene Pitney)
EXTD=
EXTT0=
EXTT1=
EXTT2=
EXTT3=
EXTT4=
EXTT5=
EXTT6=
EXTT7=
EXTT8=
EXTT9=
PLAYORDER=
